<svg xmlns="http://www.w3.org/2000/svg" width="318" height="120" fill="none" viewBox="0 0 318 120"><path stroke="teal" stroke-linecap="round" stroke-linejoin="round" stroke-width="20" d="M259.639 39.746L260.049 33.8772M260.049 33.8772L254.181 33.4668M260.049 33.8772L253.77 39.3356M97.2966 38.367L91.6705 36.6469M91.6705 36.6469L89.9504 42.273M91.6705 36.6469L95.5765 43.993M239.616 19.6698L233.588 21.2848L232.656 25.8414M59.021 40.2881L50.8764 42.2803L55.463 26.2849L63.6076 24.2927M59.021 40.2881L65.8721 46.5803M59.021 40.2881L63.6076 24.2927M65.8721 46.5803L74.0167 44.5881L78.6033 28.5927L70.4587 30.5849M65.8721 46.5803L70.4587 30.5849M70.4587 30.5849L63.6076 24.2927M306.23 87.9735L305.49 88.856C291.482 105.55 273.049 104.369 261.87 94.989C251.354 86.1648 246.556 69.4811 260.625 52.7139C275.928 34.4759 292.86 47.3043 295.286 49.3407C298.669 52.1792 300.291 55.9214 298.121 61.4944C296.398 65.9381 292.64 72.0589 289.579 76.0064C288.591 77.1831 287.768 77.1188 286.639 76.6725C283.471 75.5186 277.519 72.9049 277.225 72.658C276.416 71.9793 276.542 71.0824 277.123 69.9412C279.45 65.3766 279.734 64.7384 278.705 63.8745C278.043 63.3192 274.517 62.7418 271.926 65.8305C268.964 69.3604 269.584 74.8938 274.143 78.7196C279.365 83.1009 288.457 84.2134 296.17 75.0209C296.602 74.5061 297.096 73.9178 297.454 73.3413L297.578 73.1942C298.442 72.1646 300.153 71.4698 301.403 72.5188C302.138 73.1359 305.534 79.2441 307.109 82.4452C307.792 84.0209 308.02 85.8408 306.23 87.9735ZM227.703 93.6H226.551C204.759 93.6 193.815 78.72 193.815 64.128C193.815 50.4 203.511 36 225.399 36C249.207 36 250.263 57.216 250.263 60.384C250.263 64.8 248.439 68.448 242.775 70.368C238.263 71.904 231.159 72.96 226.167 73.152C224.631 73.152 224.151 72.48 223.767 71.328C222.615 68.16 220.791 61.92 220.791 61.536C220.791 60.48 221.559 60 222.807 59.712C227.799 58.56 228.471 58.368 228.471 57.024C228.471 56.16 226.647 53.088 222.615 53.088C218.007 53.088 214.167 57.12 214.167 63.072C214.167 69.888 219.159 77.568 231.159 77.568C231.831 77.568 232.599 77.568 233.271 77.472H233.463C234.807 77.472 236.439 78.336 236.439 79.968C236.439 80.928 233.943 87.456 232.503 90.72C231.735 92.256 230.487 93.6 227.703 93.6ZM157.355 87.901L156.307 87.7723C154.211 87.5149 153.305 87.0168 152.932 85.3267L150.097 73.7589C150.037 73.4614 149.976 73.1638 150 72.9733C150.175 71.544 152.104 71.5874 153.248 71.7278C158.881 72.3228 161.877 69.9824 162.158 67.6956C162.31 66.4569 161.258 64.7803 160.135 62.9013L157.913 59.7269C154.306 54.4479 153.093 50.1401 153.538 46.5193C154.86 35.7522 171.093 31.9421 183.576 33.4747C187.292 33.931 188.198 34.4291 188.654 36.2262L191.585 47.8056C191.729 48.2102 191.694 48.496 191.658 48.7819C191.53 49.83 190.435 50.0824 189.196 49.9304L188.815 49.8836C183.098 49.1816 180.672 50.8182 180.438 52.7239C180.24 54.3437 181.447 56.3296 184.576 60.7761C188.374 66.0785 189.753 70.6003 189.309 74.2211C187.928 85.4647 170.123 89.4687 157.355 87.901ZM141.867 105.161L123.03 105.749C118.565 107.585 114.137 108.744 109.929 109.112C96.6363 110.275 85.6551 103.719 83.2381 86.0063C82.4074 79.8152 81.1786 67.9732 80.5475 61.8609C80.2044 57.9399 81.4764 57.0577 82.6156 56.8616C82.6945 56.662 97.4259 54.3132 99.0517 54.1709C100.964 54.0036 101.813 54.893 102.009 56.0322C103.144 62.3896 103.787 67.5371 105.356 78.8674C106.458 87.0585 109.578 89.6766 113.595 89.3252C115.508 89.1578 117.744 88.2876 120.035 86.9308L118.878 53.8819C118.873 52.7259 119.763 51.8771 120.815 51.7851L139.938 51.172C141.086 51.0716 141.934 51.9611 142.035 53.1087L143.803 103.065C143.808 104.221 142.919 105.069 141.867 105.161ZM27.378 99.4725L11.6132 96.4323C10.5886 96.1768 9.84286 95.1994 10.0284 94.0584L25.0906 16.9808L25.137 16.7945C25.3693 15.863 26.4166 15.2337 27.3714 15.3728L46.2333 19.0862L46.4196 19.1326C47.4442 19.3881 47.9804 20.4122 47.818 21.4601L42.7354 47.401C46.5537 47.1658 50.5121 47.5591 54.4244 48.5345C72.3089 52.9936 81.3283 66.8183 77.1479 83.585C72.921 100.538 55.1377 108.768 38.8367 104.704C34.8314 103.705 31.0118 101.962 27.378 99.4725ZM39.2078 65.5178L35.5875 84.4029C37.0549 85.2635 38.4988 85.8214 39.9892 86.193C46.5096 87.8187 52.5612 84.5784 54.1405 78.2444C55.1391 74.239 54.7623 67.4172 47.1241 65.5128C44.4228 64.8392 41.5125 65.0041 39.2078 65.5178ZM264.759 29.7834C268.527 34.1182 268.068 40.6871 263.733 44.4554C259.398 48.2236 252.829 47.7643 249.061 43.4294C245.293 39.0945 245.752 32.5257 250.087 28.7574C254.422 24.9892 260.99 25.4485 264.759 29.7834ZM88.741 31.1373C93.8124 28.4408 100.11 30.366 102.806 35.4375C105.503 40.5089 103.577 46.8061 98.506 49.5026C93.4346 52.1992 87.1374 50.2739 84.4408 45.2025C81.7443 40.131 83.6695 33.8339 88.741 31.1373ZM236.28 31.3304C230.732 32.817 225.029 29.5246 223.543 23.9765C222.056 18.4285 225.348 12.7258 230.896 11.2392C236.444 9.75259 242.147 13.045 243.634 18.5931C245.12 24.1411 241.828 29.8438 236.28 31.3304ZM217.183 24.48C217.183 30.2238 212.527 34.88 206.783 34.88C201.04 34.88 196.383 30.2238 196.383 24.48C196.383 18.7362 201.04 14.08 206.783 14.08C212.527 14.08 217.183 18.7362 217.183 24.48ZM211.193 20.0704L208.988 26.6848L202.374 28.8896L204.579 22.2752L211.193 20.0704ZM128.159 38.8564L110.325 51.5055L116.111 30.4203L119.604 38.2527L128.159 38.8564Z"/><path fill="#FBFFEE" d="M306.23 87.9735L305.49 88.856C291.482 105.55 273.049 104.369 261.87 94.989C251.354 86.1648 246.556 69.4811 260.625 52.7139C275.928 34.4759 292.86 47.3043 295.286 49.3407C298.669 52.1792 300.291 55.9214 298.121 61.4944C296.398 65.9381 292.64 72.0589 289.579 76.0064C288.591 77.1831 287.768 77.1188 286.639 76.6725C283.471 75.5186 277.519 72.9049 277.225 72.658C276.416 71.9793 276.542 71.0824 277.123 69.9412C279.45 65.3767 279.734 64.7385 278.705 63.8745C278.043 63.3192 274.517 62.7418 271.926 65.8305C268.964 69.3604 269.584 74.8938 274.143 78.7196C279.365 83.1009 288.457 84.2134 296.17 75.0209C296.602 74.5061 297.096 73.9178 297.454 73.3413L297.578 73.1942C298.442 72.1646 300.153 71.4698 301.403 72.5188C302.138 73.1359 305.534 79.2441 307.109 82.4453C307.792 84.0209 308.02 85.8408 306.23 87.9735Z"/><path fill="#FBFFEE" d="M227.703 93.6H226.551C204.759 93.6 193.815 78.72 193.815 64.128C193.815 50.4 203.511 36 225.399 36C249.207 36 250.263 57.216 250.263 60.384C250.263 64.8 248.439 68.448 242.775 70.368C238.263 71.904 231.159 72.96 226.167 73.152C224.631 73.152 224.151 72.48 223.767 71.328C222.615 68.16 220.791 61.92 220.791 61.536C220.791 60.48 221.559 60 222.807 59.712C227.799 58.56 228.471 58.368 228.471 57.024C228.471 56.16 226.647 53.088 222.615 53.088C218.007 53.088 214.167 57.12 214.167 63.072C214.167 69.888 219.159 77.568 231.159 77.568C231.831 77.568 232.599 77.568 233.271 77.472H233.463C234.807 77.472 236.439 78.336 236.439 79.968C236.439 80.928 233.943 87.456 232.503 90.72C231.735 92.256 230.487 93.6 227.703 93.6Z"/><path fill="#FBFFEE" d="M157.355 87.901L156.307 87.7723C154.211 87.5149 153.305 87.0168 152.932 85.3267L150.097 73.759C150.037 73.4614 149.976 73.1639 150 72.9733C150.175 71.544 152.104 71.5874 153.248 71.7278C158.881 72.3228 161.877 69.9824 162.158 67.6956C162.31 66.4569 161.258 64.7803 160.135 62.9014L157.913 59.7269C154.306 54.4479 153.093 50.1401 153.538 46.5193C154.86 35.7522 171.093 31.9421 183.576 33.4747C187.292 33.931 188.198 34.4292 188.654 36.2262L191.585 47.8056C191.729 48.2102 191.694 48.496 191.658 48.7819C191.53 49.83 190.435 50.0825 189.196 49.9304L188.815 49.8836C183.098 49.1816 180.672 50.8182 180.438 52.7239C180.24 54.3437 181.447 56.3296 184.576 60.7761C188.374 66.0785 189.753 70.6003 189.309 74.2211C187.928 85.4647 170.123 89.4687 157.355 87.901Z"/><path fill="#FBFFEE" d="M141.867 105.161L123.03 105.749C118.565 107.585 114.137 108.744 109.929 109.112C96.6363 110.275 85.6551 103.719 83.2381 86.0063C82.4074 79.8152 81.1786 67.9732 80.5475 61.8609C80.2044 57.9399 81.4764 57.0577 82.6156 56.8617C82.6945 56.662 97.4259 54.3132 99.0517 54.1709C100.964 54.0036 101.813 54.893 102.009 56.0323C103.144 62.3896 103.787 67.5371 105.356 78.8674C106.458 87.0586 109.578 89.6766 113.595 89.3252C115.508 89.1578 117.744 88.2876 120.035 86.9308L118.878 53.8819C118.873 52.7259 119.763 51.8771 120.815 51.7851L139.938 51.172C141.086 51.0716 141.934 51.9611 142.035 53.1087L143.803 103.065C143.808 104.221 142.919 105.069 141.867 105.161Z"/><path fill="#FBFFEE" d="M27.378 99.4725L11.6132 96.4323C10.5886 96.1769 9.84286 95.1994 10.0284 94.0584L25.0906 16.9808L25.137 16.7945C25.3693 15.863 26.4166 15.2337 27.3714 15.3728L46.2333 19.0862L46.4196 19.1326C47.4442 19.3881 47.9804 20.4122 47.818 21.4601L42.7354 47.401C46.5537 47.1658 50.5121 47.5591 54.4244 48.5345C72.3089 52.9936 81.3283 66.8183 77.1479 83.585C72.921 100.538 55.1377 108.768 38.8367 104.704C34.8314 103.705 31.0118 101.962 27.378 99.4725ZM39.2078 65.5178L35.5875 84.4029C37.0549 85.2635 38.4988 85.8214 39.9892 86.193C46.5096 87.8187 52.5612 84.5784 54.1405 78.2444C55.1391 74.239 54.7623 67.4172 47.1241 65.5128C44.4228 64.8393 41.5125 65.0041 39.2078 65.5178Z"/><mask id="mask0_1_205" style="mask-type:alpha" width="298" height="95" x="10" y="15" maskUnits="userSpaceOnUse"><path fill="#D9D9D9" d="M306.23 87.9735L305.49 88.856C291.482 105.55 273.049 104.369 261.87 94.989C251.354 86.1648 246.556 69.4811 260.625 52.7139C275.928 34.4759 292.86 47.3043 295.286 49.3407C298.669 52.1792 300.291 55.9214 298.121 61.4944C296.398 65.9381 292.64 72.0589 289.579 76.0064C288.591 77.1831 287.768 77.1188 286.639 76.6725C283.471 75.5186 277.519 72.9049 277.225 72.658C276.416 71.9793 276.542 71.0824 277.123 69.9412C279.45 65.3767 279.734 64.7385 278.705 63.8745C278.043 63.3192 274.517 62.7418 271.926 65.8305C268.964 69.3604 269.584 74.8938 274.143 78.7196C279.365 83.1009 288.457 84.2134 296.17 75.0209C296.602 74.5061 297.096 73.9178 297.454 73.3413L297.578 73.1942C298.442 72.1646 300.153 71.4698 301.403 72.5188C302.138 73.1359 305.534 79.2441 307.109 82.4453C307.792 84.0209 308.02 85.8408 306.23 87.9735Z"/><path fill="#D9D9D9" d="M227.703 93.6H226.551C204.759 93.6 193.815 78.72 193.815 64.128C193.815 50.4 203.511 36 225.399 36C249.207 36 250.263 57.216 250.263 60.384C250.263 64.8 248.439 68.448 242.775 70.368C238.263 71.904 231.159 72.96 226.167 73.152C224.631 73.152 224.151 72.48 223.767 71.328C222.615 68.16 220.791 61.92 220.791 61.536C220.791 60.48 221.559 60 222.807 59.712C227.799 58.56 228.471 58.368 228.471 57.024C228.471 56.16 226.647 53.088 222.615 53.088C218.007 53.088 214.167 57.12 214.167 63.072C214.167 69.888 219.159 77.568 231.159 77.568C231.831 77.568 232.599 77.568 233.271 77.472H233.463C234.807 77.472 236.439 78.336 236.439 79.968C236.439 80.928 233.943 87.456 232.503 90.72C231.735 92.256 230.487 93.6 227.703 93.6Z"/><path fill="#D9D9D9" d="M157.355 87.901L156.307 87.7723C154.211 87.5149 153.305 87.0168 152.932 85.3267L150.097 73.759C150.037 73.4614 149.976 73.1639 150 72.9733C150.175 71.544 152.104 71.5874 153.248 71.7278C158.881 72.3228 161.877 69.9824 162.158 67.6956C162.31 66.4569 161.258 64.7803 160.135 62.9014L157.913 59.7269C154.306 54.4479 153.093 50.1401 153.538 46.5193C154.86 35.7522 171.093 31.9421 183.576 33.4747C187.292 33.931 188.198 34.4292 188.654 36.2262L191.585 47.8056C191.729 48.2102 191.694 48.496 191.658 48.7819C191.53 49.83 190.435 50.0825 189.196 49.9304L188.815 49.8836C183.098 49.1816 180.672 50.8182 180.438 52.7239C180.24 54.3437 181.447 56.3296 184.576 60.7761C188.374 66.0785 189.753 70.6003 189.309 74.2211C187.928 85.4647 170.123 89.4687 157.355 87.901Z"/><path fill="#D9D9D9" d="M141.867 105.161L123.03 105.749C118.565 107.585 114.137 108.744 109.929 109.112C96.6363 110.275 85.6551 103.719 83.2381 86.0063C82.4074 79.8152 81.1786 67.9732 80.5475 61.8609C80.2044 57.9399 81.4764 57.0577 82.6156 56.8617C82.6945 56.662 97.4259 54.3132 99.0517 54.1709C100.964 54.0036 101.813 54.893 102.009 56.0323C103.144 62.3896 103.787 67.5371 105.356 78.8674C106.458 87.0586 109.578 89.6766 113.595 89.3252C115.508 89.1578 117.744 88.2876 120.035 86.9308L118.878 53.8819C118.873 52.7259 119.763 51.8771 120.815 51.7851L139.938 51.172C141.086 51.0716 141.934 51.9611 142.035 53.1087L143.803 103.065C143.808 104.221 142.919 105.069 141.867 105.161Z"/><path fill="#D9D9D9" d="M27.378 99.4725L11.6132 96.4323C10.5886 96.1769 9.84286 95.1994 10.0284 94.0584L25.0906 16.9808L25.137 16.7945C25.3693 15.863 26.4166 15.2337 27.3714 15.3728L46.2333 19.0862L46.4196 19.1326C47.4442 19.3881 47.9804 20.4122 47.818 21.4601L42.7354 47.401C46.5537 47.1658 50.5121 47.5591 54.4244 48.5345C72.3089 52.9936 81.3283 66.8183 77.1479 83.585C72.921 100.538 55.1377 108.768 38.8367 104.704C34.8314 103.705 31.0118 101.962 27.378 99.4725ZM39.2078 65.5178L35.5875 84.4029C37.0549 85.2635 38.4988 85.8214 39.9892 86.193C46.5096 87.8187 52.5612 84.5784 54.1405 78.2444C55.1391 74.239 54.7623 67.4172 47.1241 65.5128C44.4228 64.8393 41.5125 65.0041 39.2078 65.5178Z"/></mask><g mask="url(#mask0_1_205)"><path fill="#1E1E1E" fill-opacity=".25" d="M46.8033 91.5C31.8033 84.5 -10.6967 62.5 -17.1967 79C-23.6967 95.5 -17.1967 130 -17.1967 130L344.803 120C332.637 106.333 319.803 74.2001 317.803 79C315.303 85 301.803 101.5 276.803 91.5C251.803 81.5 249.69 82.8495 237.303 79C226.02 75.4936 237.534 76.1403 211.303 68.5C185.073 60.8597 191.303 62.5 171.303 68.5C151.303 74.5 138.303 85 120.803 91.5C103.303 98 61.8033 98.5 46.8033 91.5Z"/><path fill="#1E1E1E" fill-opacity=".25" d="M46.8033 91.5C31.8033 84.5 -10.6967 62.5 -17.1967 79C-23.6967 95.5 -17.1967 130 -17.1967 130L344.803 120C332.637 106.333 319.803 74.2001 317.803 79C315.303 85 301.803 101.5 276.803 91.5C251.803 81.5 249.69 82.8495 237.303 79C226.02 75.4936 237.534 76.1403 211.303 68.5C185.073 60.8597 191.303 62.5 171.303 68.5C151.303 74.5 138.303 85 120.803 91.5C103.303 98 61.8033 98.5 46.8033 91.5Z"/><path fill="#1E1E1E" fill-opacity=".25" d="M44.1922 93.1335C29.1922 86.1335 -13.3078 64.1335 -19.8078 80.6335C-26.3078 97.1335 -19.8078 131.634 -19.8078 131.634L342.192 121.634C330.026 107.967 317.192 75.8335 315.192 80.6335C312.692 86.6335 299.192 103.133 274.192 93.1335C249.192 83.1335 247.079 84.4829 234.692 80.6335C223.409 77.1271 234.923 77.7738 208.692 70.1335C182.461 62.4932 188.692 64.1335 168.692 70.1335C148.692 76.1335 135.692 86.6335 118.192 93.1335C100.692 99.6335 59.1922 100.133 44.1922 93.1335Z"/><path fill="#1E1E1E" fill-opacity=".25" d="M44.1922 104.133C29.1922 97.1335 -13.3078 75.1335 -19.8078 91.6335C-26.3078 108.134 -19.8078 142.634 -19.8078 142.634L342.192 132.634C330.026 118.967 317.192 86.8335 315.192 91.6335C312.692 97.6335 299.192 114.133 274.192 104.133C249.192 94.1335 247.079 95.4829 234.692 91.6335C223.409 88.1271 234.923 88.7738 208.692 81.1335C182.461 73.4932 188.692 75.1335 168.692 81.1335C148.692 87.1335 135.692 97.6335 118.192 104.133C100.692 110.633 59.1922 111.133 44.1922 104.133Z"/></g><g clip-path="url(#clip0_1_205)"><path stroke="#FBFFEE" stroke-linecap="round" stroke-linejoin="round" stroke-width="2.08" d="M259.639 39.746L260.049 33.8772M260.049 33.8772L254.181 33.4668M260.049 33.8772L253.77 39.3356M264.759 29.7834C268.527 34.1183 268.068 40.6871 263.733 44.4554C259.398 48.2236 252.829 47.7643 249.061 43.4294C245.292 39.0945 245.752 32.5257 250.087 28.7574C254.422 24.9892 260.99 25.4485 264.759 29.7834Z"/></g><g clip-path="url(#clip1_1_205)"><path stroke="#FBFFEE" stroke-linecap="round" stroke-linejoin="round" stroke-width="2.08" d="M97.2966 38.367L91.6705 36.6469M91.6705 36.6469L89.9504 42.273M91.6705 36.6469L95.5765 43.993M88.741 31.1373C93.8124 28.4408 100.11 30.366 102.806 35.4375C105.503 40.5089 103.577 46.8061 98.506 49.5026C93.4346 52.1992 87.1374 50.2739 84.4408 45.2025C81.7443 40.131 83.6695 33.8339 88.741 31.1373Z"/></g><g clip-path="url(#clip2_1_205)"><path stroke="#FBFFEE" stroke-linecap="round" stroke-linejoin="round" stroke-width="2.08" d="M239.616 19.6698L233.588 21.2848L232.656 25.8414M236.28 31.3304C230.732 32.817 225.029 29.5246 223.543 23.9765C222.056 18.4285 225.348 12.7258 230.896 11.2392C236.444 9.75259 242.147 13.0451 243.634 18.5931C245.12 24.1411 241.828 29.8439 236.28 31.3304Z"/></g><path stroke="#FBFFEE" stroke-linecap="round" stroke-linejoin="round" stroke-width="2.08" d="M206.783 34.88C212.527 34.88 217.183 30.2238 217.183 24.48C217.183 18.7362 212.527 14.08 206.783 14.08C201.04 14.08 196.383 18.7362 196.383 24.48C196.383 30.2238 201.04 34.88 206.783 34.88Z"/><path stroke="#FBFFEE" stroke-linecap="round" stroke-linejoin="round" stroke-width="2.08" d="M211.193 20.0704L208.988 26.6848L202.374 28.8896L204.579 22.2752L211.193 20.0704Z"/><g clip-path="url(#clip3_1_205)"><path stroke="#FBFFEE" stroke-linecap="round" stroke-linejoin="round" stroke-width="2.08" d="M59.021 40.2881L50.8764 42.2803L55.463 26.2849L63.6076 24.2927M59.021 40.2881L65.8721 46.5803M59.021 40.2881L63.6076 24.2927M65.8721 46.5803L74.0167 44.5881L78.6033 28.5927L70.4587 30.5849M65.8721 46.5803L70.4587 30.5849M70.4587 30.5849L63.6076 24.2927"/></g><g clip-path="url(#clip4_1_205)"><path stroke="#FBFFEE" stroke-linecap="round" stroke-linejoin="round" stroke-width="2.08" d="M128.159 38.8564L110.325 51.5055L116.111 30.4203L119.605 38.2527L128.159 38.8564Z"/></g><defs><clipPath id="clip0_1_205"><rect width="24.96" height="24.96" fill="#fff" transform="translate(239.303 35.3752) rotate(-41)"/></clipPath><clipPath id="clip1_1_205"><rect width="24.96" height="24.96" fill="#fff" transform="translate(88.4633 57.1982) rotate(-118)"/></clipPath><clipPath id="clip2_1_205"><rect width="24.96" height="24.96" fill="#fff" transform="translate(242.413 6) rotate(75)"/></clipPath><clipPath id="clip3_1_205"><rect width="24.96" height="24.96" fill="#fff" transform="translate(56.1833 20) rotate(16)"/></clipPath><clipPath id="clip4_1_205"><rect width="24.96" height="24.96" fill="#fff" transform="translate(133.218 49.5808) rotate(170)"/></clipPath></defs></svg>